<svg xmlns="http://www.w3.org/2000/svg" xmlns:xlink="http://www.w3.org/1999/xlink" version="1.1" width="256" height="256" viewBox="0 0 256 256" xml:space="preserve">
<desc>Created with Fabric.js 1.7.22</desc>
<defs>
</defs>
<g transform="translate(128 128) scale(0.72 0.72)" style="">
	<g style="stroke: none; stroke-width: 0; stroke-dasharray: none; stroke-linecap: butt; stroke-linejoin: miter; stroke-miterlimit: 10; fill: none; fill-rule: nonzero; opacity: 1;" transform="translate(-175.05 -175.05000000000004) scale(3.89 3.89)" >
	<circle cx="45" cy="45" r="45" style="stroke: none; stroke-width: 1; stroke-dasharray: none; stroke-linecap: butt; stroke-linejoin: miter; stroke-miterlimit: 10; fill: rgb(32,196,203); fill-rule: nonzero; opacity: 1;" transform="  matrix(1 0 0 1 0 0) "/>
	<path d="M 44.954 57.326 L 16.37 22.521 l 0 0 l 35.309 28.08 c 2.768 2.768 3.764 6.3 2.214 7.85 l -1.089 1.089 C 51.254 61.09 47.722 60.094 44.954 57.326 z" style="stroke: none; stroke-width: 1; stroke-dasharray: none; stroke-linecap: butt; stroke-linejoin: miter; stroke-miterlimit: 10; fill: rgb(27,167,173); fill-rule: nonzero; opacity: 1;" transform=" matrix(1 0 0 1 0 0) " stroke-linecap="round" />
	<path d="M 50.806 61.759 c -2.145 0 -4.726 -1.186 -6.912 -3.372 c -0.035 -0.034 -0.067 -0.07 -0.099 -0.108 L 15.211 23.473 c -0.487 -0.593 -0.448 -1.458 0.09 -2.004 c 0.538 -0.546 1.401 -0.6 2.002 -0.122 l 35.31 28.08 c 0.045 0.035 0.087 0.073 0.127 0.113 c 3.416 3.416 4.389 7.796 2.213 9.972 l -1.089 1.089 C 53.081 61.384 52.013 61.759 50.806 61.759 z M 46.065 56.315 c 1.133 1.118 2.47 1.952 3.678 2.293 c 0.915 0.257 1.662 0.209 2 -0.129 l 1.089 -1.089 c 0.339 -0.339 0.388 -1.087 0.13 -2.001 c -0.34 -1.205 -1.171 -2.539 -2.285 -3.67 L 26.502 32.495 L 46.065 56.315 z" style="stroke: none; stroke-width: 1; stroke-dasharray: none; stroke-linecap: butt; stroke-linejoin: miter; stroke-miterlimit: 10; fill: rgb(27,167,173); fill-rule: nonzero; opacity: 1;" transform=" matrix(1 0 0 1 0 0) " stroke-linecap="round" />
	<path d="M 69.472 76.354 c -0.926 0.616 -1.963 0.874 -3.07 0.858 c -1.1 -0.026 -2.254 -0.418 -3.255 -1.104 c -1.007 -0.681 -1.813 -1.652 -2.361 -2.674 c -0.279 -0.511 -0.492 -1.04 -0.659 -1.564 c -0.092 -0.266 -0.145 -0.527 -0.212 -0.791 l -0.077 -0.348 l -0.041 -0.156 c -0.185 -0.803 -0.338 -1.519 -0.923 -2.724 c -0.568 -1.189 -1.531 -2.574 -2.457 -4.551 c 2.067 -0.683 4.05 -0.567 5.995 0.346 c 0.965 0.46 1.894 1.171 2.649 2.115 c 0.758 0.937 1.31 2.109 1.567 3.288 l 0.135 0.696 c 0.018 0.135 0.03 0.278 0.056 0.404 l 0.106 0.761 c 0.071 0.489 0.129 0.934 0.237 1.448 C 67.352 73.381 68.067 74.659 69.472 76.354 z" style="stroke: none; stroke-width: 1; stroke-dasharray: none; stroke-linecap: butt; stroke-linejoin: miter; stroke-miterlimit: 10; fill: rgb(27,167,173); fill-rule: nonzero; opacity: 1;" transform=" matrix(1 0 0 1 0 0) " stroke-linecap="round" />
	<path d="M 48.121 54.159 L 19.537 19.354 l 0 0 l 35.309 28.08 c 2.768 2.768 3.764 6.3 2.214 7.85 l -1.089 1.089 C 54.421 57.923 50.888 56.927 48.121 54.159 z" style="stroke: none; stroke-width: 1; stroke-dasharray: none; stroke-linecap: butt; stroke-linejoin: miter; stroke-miterlimit: 10; fill: rgb(255,255,255); fill-rule: nonzero; opacity: 1;" transform=" matrix(1 0 0 1 0 0) " stroke-linecap="round" />
	<path d="M 53.978 58.607 c -0.591 0 -1.222 -0.092 -1.883 -0.278 c -1.729 -0.488 -3.518 -1.593 -5.034 -3.109 c -0.035 -0.034 -0.067 -0.071 -0.099 -0.108 L 18.378 20.306 c -0.487 -0.593 -0.448 -1.458 0.09 -2.004 c 0.539 -0.546 1.401 -0.6 2.002 -0.122 l 35.309 28.08 c 0.045 0.035 0.087 0.073 0.127 0.113 c 3.417 3.416 4.389 7.797 2.214 9.972 l -1.089 1.089 C 56.255 58.21 55.204 58.607 53.978 58.607 z M 49.232 53.148 c 1.132 1.118 2.469 1.952 3.677 2.293 c 0.917 0.258 1.663 0.208 2.001 -0.129 l 1.089 -1.089 c 0.339 -0.339 0.387 -1.087 0.129 -2.001 c -0.34 -1.205 -1.171 -2.539 -2.285 -3.67 L 29.67 29.329 L 49.232 53.148 z" style="stroke: none; stroke-width: 1; stroke-dasharray: none; stroke-linecap: butt; stroke-linejoin: miter; stroke-miterlimit: 10; fill: rgb(255,255,255); fill-rule: nonzero; opacity: 1;" transform=" matrix(1 0 0 1 0 0) " stroke-linecap="round" />
	<path d="M 72.639 73.187 c -0.926 0.616 -1.963 0.874 -3.07 0.858 c -1.1 -0.026 -2.254 -0.418 -3.255 -1.104 c -1.007 -0.681 -1.813 -1.652 -2.361 -2.674 c -0.279 -0.511 -0.492 -1.04 -0.659 -1.564 c -0.092 -0.266 -0.145 -0.527 -0.212 -0.791 l -0.077 -0.348 l -0.041 -0.156 c -0.185 -0.803 -0.338 -1.519 -0.923 -2.724 c -0.568 -1.189 -1.531 -2.574 -2.457 -4.551 c 2.067 -0.683 4.05 -0.567 5.995 0.346 c 0.965 0.46 1.894 1.171 2.649 2.115 c 0.758 0.937 1.31 2.109 1.567 3.288 l 0.135 0.696 c 0.018 0.135 0.03 0.278 0.056 0.404 l 0.106 0.761 c 0.071 0.489 0.129 0.934 0.237 1.448 C 70.519 70.214 71.233 71.493 72.639 73.187 z" style="stroke: none; stroke-width: 1; stroke-dasharray: none; stroke-linecap: butt; stroke-linejoin: miter; stroke-miterlimit: 10; fill: rgb(255,255,255); fill-rule: nonzero; opacity: 1;" transform=" matrix(1 0 0 1 0 0) " stroke-linecap="round" />
</g>
</g>
</svg>